#Comment line ignore any data following # character 
#Hierarchical Translation and Rotation (.htr) file 
[Header]	
#Header keywords are followed by a single value 
FileType HTR		#Single word string
DataType HTRS		#Translation followed by rotation and scale data
FileVersion 1		#integer
NumSegments 84		#integer
NumFrames 2		#integer
DataFrameRate 30		#integer, data frame rate in this file
EulerRotationOrder ZYX
CalibrationUnits mm
RotationUnits Degrees
GlobalAxisofGravity Y
BoneLengthAxis Y
ScaleFactor 1.00
[SegmentNames&Hierarchy]
#CHILD	PARENT
MASTER GLOBAL
root MASTER
chest root
L_mid_tent01 root
R_mid_tent01 root
spine01 root
Bip01_Neck chest
L_humerus chest
R_humerus chest
weapon_bone chest
Bip01_Head Bip01_Neck
eye_left_bone Bip01_Head
eye_right_bone Bip01_Head
L_forearm L_humerus
L_front_hand L_forearm
L_weapon_bone L_forearm
L_front_hand01_01 L_front_hand
L_front_hand02_01 L_front_hand
L_front_hand03_01 L_front_hand
L_front_hand01_02 L_front_hand01_01
L_front_hand02_02 L_front_hand02_01
L_front_hand03_02 L_front_hand03_01
R_forearm R_humerus
R_front_hand R_forearm
R_weapon_bone R_forearm
R_front_hand01_01 R_front_hand
R_front_hand02_01 R_front_hand
R_front_hand03_01 R_front_hand
R_front_hand01_02 R_front_hand01_01
R_front_hand02_02 R_front_hand02_01
R_front_hand03_02 R_front_hand03_01
null_rope01_connect L_mid_tent01
Rope1_Seg01 null_rope01_connect
Rope1_Seg02 Rope1_Seg01
Rope1_Seg03 Rope1_Seg02
Rope1_Seg04 Rope1_Seg03
Rope1_Seg05 Rope1_Seg04
Rope1_Seg06 Rope1_Seg05
Rope1_Seg07 Rope1_Seg06
Rope1_Seg09 Rope1_Seg07
L_mid_hand01 Rope1_Seg09
L_mid_hand02 Rope1_Seg09
L_mid_hand03 Rope1_Seg09
null_rope02_connect R_mid_tent01
Rope2_Seg01 null_rope02_connect
Rope2_Seg02 Rope2_Seg01
Rope2_Seg03 Rope2_Seg02
Rope2_Seg04 Rope2_Seg03
Rope2_Seg05 Rope2_Seg04
Rope2_Seg06 Rope2_Seg05
Rope2_Seg07 Rope2_Seg06
Rope2_Seg09 Rope2_Seg07
R_mid_hand01 Rope2_Seg09
R_mid_hand02 Rope2_Seg09
R_mid_hand03 Rope2_Seg09
spine02 spine01
spine03 spine02
pelvis spine03
null_rope03_connect pelvis
null_rope04_connect pelvis
Rope3_Seg01 null_rope03_connect
Rope3_Seg02 Rope3_Seg01
Rope3_Seg03 Rope3_Seg02
Rope3_Seg04 Rope3_Seg03
Rope3_Seg05 Rope3_Seg04
Rope3_Seg06 Rope3_Seg05
Rope3_Seg07 Rope3_Seg06
Rope3_Seg08 Rope3_Seg07
Rope3_Seg09 Rope3_Seg08
R_rear_hand01 Rope3_Seg09
R_rear_hand02 Rope3_Seg09
R_rear_hand03 Rope3_Seg09
Rope4_Seg01 null_rope04_connect
Rope4_Seg02 Rope4_Seg01
Rope4_Seg03 Rope4_Seg02
Rope4_Seg04 Rope4_Seg03
Rope4_Seg05 Rope4_Seg04
Rope4_Seg06 Rope4_Seg05
Rope4_Seg07 Rope4_Seg06
Rope4_Seg08 Rope4_Seg07
Rope4_Seg09 Rope4_Seg08
L_rear_hand01 Rope4_Seg09
L_rear_hand02 Rope4_Seg09
L_rear_hand03 Rope4_Seg09
[BasePosition]
#SegmentName Tx, Ty, Tz, Rx, Ry, Rz, BoneLength
MASTER 0.000000 0.000000 0.000000 -90.000000 0.000000 0.000000 10.000000 
root 0.000000 0.000000 0.000000 0.000000 0.000000 0.000000 10.000000 
chest 0.000000 0.000000 0.000000 0.000000 0.000000 0.000000 10.000000 
L_mid_tent01 0.000000 0.000000 0.000000 0.000000 0.000000 0.000000 10.000000 
R_mid_tent01 0.000000 0.000000 0.000000 0.000000 0.000000 0.000000 10.000000 
spine01 0.000000 0.000000 0.000000 0.000000 0.000000 0.000000 10.000000 
Bip01_Neck 0.000000 0.000000 0.000000 0.000000 0.000000 0.000000 10.000000 
L_humerus 0.000000 0.000000 0.000000 0.000000 0.000000 0.000000 10.000000 
R_humerus 0.000000 0.000000 0.000000 0.000000 0.000000 0.000000 10.000000 
weapon_bone 0.000000 0.000000 0.000000 0.000000 0.000000 0.000000 10.000000 
Bip01_Head 0.000000 0.000000 0.000000 0.000000 0.000000 0.000000 10.000000 
eye_left_bone 0.000000 0.000000 0.000000 0.000000 0.000000 0.000000 10.000000 
eye_right_bone 0.000000 0.000000 0.000000 0.000000 0.000000 0.000000 10.000000 
L_forearm 0.000000 0.000000 0.000000 0.000000 0.000000 0.000000 10.000000 
L_front_hand 0.000000 0.000000 0.000000 0.000000 0.000000 0.000000 10.000000 
L_weapon_bone 0.000000 0.000000 0.000000 0.000000 0.000000 0.000000 10.000000 
L_front_hand01_01 0.000000 0.000000 0.000000 0.000000 0.000000 0.000000 10.000000 
L_front_hand02_01 0.000000 0.000000 0.000000 0.000000 0.000000 0.000000 10.000000 
L_front_hand03_01 0.000000 0.000000 0.000000 0.000000 0.000000 0.000000 10.000000 
L_front_hand01_02 0.000000 0.000000 0.000000 0.000000 0.000000 0.000000 10.000000 
L_front_hand02_02 0.000000 0.000000 0.000000 0.000000 0.000000 0.000000 10.000000 
L_front_hand03_02 0.000000 0.000000 0.000000 0.000000 0.000000 0.000000 10.000000 
R_forearm 0.000000 0.000000 0.000000 0.000000 0.000000 0.000000 10.000000 
R_front_hand 0.000000 0.000000 0.000000 0.000000 0.000000 0.000000 10.000000 
R_weapon_bone 0.000000 0.000000 0.000000 0.000000 0.000000 0.000000 10.000000 
R_front_hand01_01 0.000000 0.000000 0.000000 0.000000 0.000000 0.000000 10.000000 
R_front_hand02_01 0.000000 0.000000 0.000000 0.000000 0.000000 0.000000 10.000000 
R_front_hand03_01 0.000000 0.000000 0.000000 0.000000 0.000000 0.000000 10.000000 
R_front_hand01_02 0.000000 0.000000 0.000000 0.000000 0.000000 0.000000 10.000000 
R_front_hand02_02 0.000000 0.000000 0.000000 0.000000 0.000000 0.000000 10.000000 
R_front_hand03_02 0.000000 0.000000 0.000000 0.000000 0.000000 0.000000 10.000000 
null_rope01_connect 0.000000 0.000000 0.000000 0.000000 0.000000 0.000000 10.000000 
Rope1_Seg01 0.000000 0.000000 0.000000 0.000000 0.000000 0.000000 10.000000 
Rope1_Seg02 0.000000 0.000000 0.000000 0.000000 0.000000 0.000000 10.000000 
Rope1_Seg03 0.000000 0.000000 0.000000 0.000000 0.000000 0.000000 10.000000 
Rope1_Seg04 0.000000 0.000000 0.000000 0.000000 0.000000 0.000000 10.000000 
Rope1_Seg05 0.000000 0.000000 0.000000 0.000000 0.000000 0.000000 10.000000 
Rope1_Seg06 0.000000 0.000000 0.000000 0.000000 0.000000 0.000000 10.000000 
Rope1_Seg07 0.000000 0.000000 0.000000 0.000000 0.000000 0.000000 10.000000 
Rope1_Seg09 0.000000 0.000000 0.000000 0.000000 0.000000 0.000000 10.000000 
L_mid_hand01 0.000000 0.000000 0.000000 0.000000 0.000000 0.000000 10.000000 
L_mid_hand02 0.000000 0.000000 0.000000 0.000000 0.000000 0.000000 10.000000 
L_mid_hand03 0.000000 0.000000 0.000000 0.000000 0.000000 0.000000 10.000000 
null_rope02_connect 0.000000 0.000000 0.000000 0.000000 0.000000 0.000000 10.000000 
Rope2_Seg01 0.000000 0.000000 0.000000 0.000000 0.000000 0.000000 10.000000 
Rope2_Seg02 0.000000 0.000000 0.000000 0.000000 0.000000 0.000000 10.000000 
Rope2_Seg03 0.000000 0.000000 0.000000 0.000000 0.000000 0.000000 10.000000 
Rope2_Seg04 0.000000 0.000000 0.000000 0.000000 0.000000 0.000000 10.000000 
Rope2_Seg05 0.000000 0.000000 0.000000 0.000000 0.000000 0.000000 10.000000 
Rope2_Seg06 0.000000 0.000000 0.000000 0.000000 0.000000 0.000000 10.000000 
Rope2_Seg07 0.000000 0.000000 0.000000 0.000000 0.000000 0.000000 10.000000 
Rope2_Seg09 0.000000 0.000000 0.000000 0.000000 0.000000 0.000000 10.000000 
R_mid_hand01 0.000000 0.000000 0.000000 0.000000 0.000000 0.000000 10.000000 
R_mid_hand02 0.000000 0.000000 0.000000 0.000000 0.000000 0.000000 10.000000 
R_mid_hand03 0.000000 0.000000 0.000000 0.000000 0.000000 0.000000 10.000000 
spine02 0.000000 0.000000 0.000000 0.000000 0.000000 0.000000 10.000000 
spine03 0.000000 0.000000 0.000000 0.000000 0.000000 0.000000 10.000000 
pelvis 0.000000 0.000000 0.000000 0.000000 0.000000 0.000000 10.000000 
null_rope03_connect 0.000000 0.000000 0.000000 0.000000 0.000000 0.000000 10.000000 
null_rope04_connect 0.000000 0.000000 0.000000 0.000000 0.000000 0.000000 10.000000 
Rope3_Seg01 0.000000 0.000000 0.000000 0.000000 0.000000 0.000000 10.000000 
Rope3_Seg02 0.000000 0.000000 0.000000 0.000000 0.000000 0.000000 10.000000 
Rope3_Seg03 0.000000 0.000000 0.000000 0.000000 0.000000 0.000000 10.000000 
Rope3_Seg04 0.000000 0.000000 0.000000 0.000000 0.000000 0.000000 10.000000 
Rope3_Seg05 0.000000 0.000000 0.000000 0.000000 0.000000 0.000000 10.000000 
Rope3_Seg06 0.000000 0.000000 0.000000 0.000000 0.000000 0.000000 10.000000 
Rope3_Seg07 0.000000 0.000000 0.000000 0.000000 0.000000 0.000000 10.000000 
Rope3_Seg08 0.000000 0.000000 0.000000 0.000000 0.000000 0.000000 10.000000 
Rope3_Seg09 0.000000 0.000000 0.000000 0.000000 0.000000 0.000000 10.000000 
R_rear_hand01 0.000000 0.000000 0.000000 0.000000 0.000000 0.000000 10.000000 
R_rear_hand02 0.000000 0.000000 0.000000 0.000000 0.000000 0.000000 10.000000 
R_rear_hand03 0.000000 0.000000 0.000000 0.000000 0.000000 0.000000 10.000000 
Rope4_Seg01 0.000000 0.000000 0.000000 0.000000 0.000000 0.000000 10.000000 
Rope4_Seg02 0.000000 0.000000 0.000000 0.000000 0.000000 0.000000 10.000000 
Rope4_Seg03 0.000000 0.000000 0.000000 0.000000 0.000000 0.000000 10.000000 
Rope4_Seg04 0.000000 0.000000 0.000000 0.000000 0.000000 0.000000 10.000000 
Rope4_Seg05 0.000000 0.000000 0.000000 0.000000 0.000000 0.000000 10.000000 
Rope4_Seg06 0.000000 0.000000 0.000000 0.000000 0.000000 0.000000 10.000000 
Rope4_Seg07 0.000000 0.000000 0.000000 0.000000 0.000000 0.000000 10.000000 
Rope4_Seg08 0.000000 0.000000 0.000000 0.000000 0.000000 0.000000 10.000000 
Rope4_Seg09 0.000000 0.000000 0.000000 0.000000 0.000000 0.000000 10.000000 
L_rear_hand01 0.000000 0.000000 0.000000 0.000000 0.000000 0.000000 10.000000 
L_rear_hand02 0.000000 0.000000 0.000000 0.000000 0.000000 0.000000 10.000000 
L_rear_hand03 0.000000 0.000000 0.000000 0.000000 0.000000 0.000000 10.000000 
#Beginning of Data. Separated by tabs
#Fr	Tx	Ty	Tz	Rx	Ry	Rz	SF
[MASTER]
22 0.000000 0.000000 0.000000 0.001660 0.001660 0.001660 0.000000
23 0.000000 0.000000 0.000000 0.001660 0.001660 0.001660 0.000000
[root]
22 19.338791 353.046051 1639.640259 -68.644608 -17.505402 -138.275055 1677.329834
23 26.108816 359.365387 1617.090332 -67.099113 -14.491145 -141.765427 1656.745728
[chest]
22 -84.512650 -34.090519 0.000000 -2.853526 -9.248661 176.198105 91.129311
23 -84.512650 -34.090519 0.000000 -2.862199 -8.546508 176.287323 91.129311
[L_mid_tent01]
22 27.299711 22.177740 -249.918747 112.988686 10.694148 154.930145 252.381668
23 27.299671 22.177835 -249.918747 112.479904 8.401660 153.268402 252.381683
[R_mid_tent01]
22 23.228794 24.509907 226.238495 -101.588707 -43.133053 24.920368 228.744751
23 23.228794 24.509907 226.238495 -106.666634 -39.292778 27.661917 228.744751
[spine01]
22 -0.361383 -0.195265 0.000000 0.001934 0.001330 20.974541 0.410763
23 -0.361383 -0.195265 0.000000 0.001934 0.001330 20.969515 0.410763
[Bip01_Neck]
22 165.484543 71.581718 0.000119 175.896118 1.177290 24.871183 180.302734
23 165.484543 71.581718 0.000119 175.896118 1.177290 24.871183 180.302734
[L_humerus]
22 -13.983130 -135.272980 -120.471481 -71.199341 13.632723 0.536229 181.680161
23 -13.983130 -135.272980 -120.471481 -69.294815 14.602873 3.211993 181.680161
[R_humerus]
22 -13.983309 -135.273102 125.287651 136.466843 -33.134975 -8.145774 184.909012
23 -13.983309 -135.273102 125.287651 137.265213 -33.353802 -10.285590 184.909012
[weapon_bone]
22 235.964890 -300.705902 0.000000 0.000000 -89.951546 -128.212341 382.234833
23 235.964890 -300.705902 0.000000 0.000000 -89.951546 -128.212341 382.234833
[Bip01_Head]
22 260.641937 76.046135 0.327262 35.322918 12.023084 -67.616661 271.509369
23 261.492615 74.929352 0.197296 40.111042 13.512224 -69.325790 272.016235
[eye_left_bone]
22 34.313503 158.532547 -75.636650 -121.120972 -86.663872 21.791716 178.971756
23 33.989941 158.436020 -75.601242 -119.304924 -86.559914 19.958475 178.809494
[eye_right_bone]
22 39.951706 160.108093 53.259159 58.866184 -86.665459 21.802849 173.399185
23 39.881248 159.972092 53.284107 60.708302 -86.561913 19.945227 173.265060
[L_forearm]
22 322.776093 0.000000 -0.000119 0.001553 0.001760 -7.159393 322.776093
23 322.776093 0.000000 -0.000119 0.001586 0.001730 -4.970314 322.776093
[L_front_hand]
22 241.149185 -0.042021 -3.300071 179.187454 8.169608 3.109308 241.171753
23 241.149185 -0.042021 -3.300071 -125.543076 3.740383 4.943157 241.171753
[L_weapon_bone]
22 156.183838 0.000000 0.000000 0.000319 0.002325 -74.381981 156.183838
23 156.183838 0.000000 0.000000 0.000381 0.002316 -71.314835 156.183838
[L_front_hand01_01]
22 86.095154 20.947098 -0.655860 -0.289210 -0.524048 66.634743 88.609184
23 86.095154 20.947098 -0.655860 -0.288967 -0.524182 66.581490 88.609184
[L_front_hand02_01]
22 86.935165 -11.437475 24.513514 142.607056 -55.285198 -47.432209 91.046425
23 86.935165 -11.437475 24.513514 142.546356 -55.255375 -47.355190 91.046425
[L_front_hand03_01]
22 86.637497 -14.123976 -20.424902 -142.912720 53.507496 -49.430859 90.126129
23 86.637497 -14.123976 -20.424902 -142.852753 53.473366 -49.356197 90.126129
[L_front_hand01_02]
22 71.020905 -0.000179 0.000030 0.001534 0.001777 -8.379166 71.020905
23 71.020905 -0.000179 0.000030 0.000195 -0.002339 -99.519585 71.020905
[L_front_hand02_02]
22 71.020927 -0.000119 0.000060 0.001534 0.001777 -8.379166 71.020927
23 71.020927 -0.000119 0.000060 0.000195 -0.002339 -99.519585 71.020927
[L_front_hand03_02]
22 71.020905 -0.000060 0.000060 0.001534 0.001777 -8.379166 71.020905
23 71.020905 -0.000060 0.000060 0.000195 -0.002339 -99.519585 71.020905
[R_forearm]
22 322.776428 -0.000060 0.000030 0.112581 -0.181464 -33.191280 322.776428
23 322.776428 -0.000060 0.000030 0.112336 -0.181616 -33.036491 322.776428
[R_front_hand]
22 238.847015 -0.006795 2.210259 -2.635298 -10.645461 -26.312506 238.857239
23 238.847015 -0.006795 2.210259 -2.635298 -10.645461 -26.312506 238.857239
[R_weapon_bone]
22 155.664093 0.002503 -0.000030 0.003487 0.001180 -90.988930 155.664078
23 155.664093 0.002503 -0.000030 0.003487 0.001180 -90.988930 155.664078
[R_front_hand01_01]
22 87.624611 14.231146 22.918642 -154.633499 -59.950619 61.746044 91.683487
23 87.624611 14.231146 22.918642 -154.633499 -59.950619 61.746044 91.683487
[R_front_hand02_01]
22 89.356956 14.367283 -19.491137 154.602661 58.302849 63.744389 92.579636
23 89.356956 14.367283 -19.491137 154.602661 58.302849 63.744389 92.579636
[R_front_hand03_01]
22 87.286232 -22.307278 -0.143439 0.162155 -0.423168 -75.767921 90.091743
23 87.286232 -22.307278 -0.143439 0.162155 -0.423168 -75.767921 90.091743
[R_front_hand01_02]
22 71.020905 0.000060 0.000119 0.002327 -0.000305 104.948051 71.020905
23 71.020905 0.000060 0.000119 0.002323 -0.000334 106.381706 71.020905
[R_front_hand02_02]
22 71.020844 -0.000030 -0.000119 0.002327 -0.000305 104.948051 71.020836
23 71.020844 -0.000030 -0.000119 0.002323 -0.000334 106.381706 71.020836
[R_front_hand03_02]
22 71.020905 0.000000 0.000030 0.002327 -0.000305 104.948051 71.020905
23 71.020905 0.000000 0.000030 0.002323 -0.000334 106.381706 71.020905
[null_rope01_connect]
22 328.732483 0.000000 -0.000238 -149.461563 34.529602 51.118065 328.732483
23 328.732483 0.000000 -0.000238 -152.400299 33.420273 43.635876 328.732483
[Rope1_Seg01]
22 -0.000038 -0.000114 0.000106 57.708309 50.684952 69.993980 0.000161
23 -0.000038 -0.000114 0.000107 53.032864 47.922096 64.935707 0.000161
[Rope1_Seg02]
22 139.999863 -0.000179 0.000000 -1.711558 -8.340710 2.407926 139.999863
23 139.999863 -0.000179 0.000000 -2.365603 -9.051076 1.697482 139.999863
[Rope1_Seg03]
22 139.999924 0.000060 -0.000060 -3.257169 -10.334084 2.690956 139.999924
23 139.999924 0.000060 -0.000060 -4.121666 -10.712241 1.581215 139.999924
[Rope1_Seg04]
22 139.999924 -0.000060 -0.000119 -8.405610 -16.108145 3.882808 139.999924
23 139.999924 -0.000060 -0.000119 -9.962173 -16.366541 1.342533 139.999924
[Rope1_Seg05]
22 139.999832 0.000119 -0.000060 -13.879580 -15.694860 1.511534 139.999832
23 139.999832 0.000119 -0.000060 -12.435308 -13.389099 -1.258013 139.999832
[Rope1_Seg06]
22 139.999954 0.000119 -0.000060 1.191701 2.273733 -1.107547 139.999954
23 139.999954 0.000119 -0.000060 2.922587 2.705025 0.704120 139.999954
[Rope1_Seg07]
22 139.999985 0.000060 0.000000 9.918528 15.135444 -0.785636 139.999985
23 139.999985 0.000060 0.000000 11.924910 13.229403 3.301698 139.999985
[Rope1_Seg09]
22 121.602913 0.000119 -0.000089 135.955139 -1.361548 0.845974 121.602913
23 121.602913 0.000119 -0.000089 169.775864 -1.360855 0.848422 121.602913
[L_mid_hand01]
22 103.859421 1.038730 8.195221 116.315681 -55.993904 -22.824539 104.187431
23 103.859421 1.038730 8.195221 119.744926 -60.011074 -26.862082 104.187431
[L_mid_hand02]
22 105.572853 -4.139662 -10.864139 -157.246307 39.367386 -55.928040 106.211075
23 105.572853 -4.139662 -10.864139 -160.837738 40.994530 -61.495262 106.211075
[L_mid_hand03]
22 104.641464 17.579376 -3.913581 -10.157294 15.864441 60.654682 106.179977
23 104.641464 17.579376 -3.913581 -8.849215 16.616249 65.333374 106.179977
[null_rope02_connect]
22 328.732849 0.000179 -0.000119 -170.743011 -7.685929 -88.905281 328.732849
23 328.732849 0.000179 -0.000119 -174.161011 -7.364274 -95.222923 328.732849
[Rope2_Seg01]
22 0.000032 0.000107 0.000000 94.801308 -8.810261 -127.254242 0.000112
23 0.000037 0.000108 0.000000 95.398521 0.515159 -129.528107 0.000114
[Rope2_Seg02]
22 139.999741 -0.000060 -0.000119 -0.197881 6.655614 6.716659 139.999756
23 139.999741 -0.000060 -0.000119 -0.261110 4.507482 5.784807 139.999756
[Rope2_Seg03]
22 140.000107 0.000030 0.000000 0.581511 31.428095 38.108891 140.000107
23 140.000107 0.000030 0.000000 -0.196198 17.684649 24.621202 140.000107
[Rope2_Seg04]
22 139.999802 0.000000 -0.000060 -6.093219 29.331671 56.588940 139.999802
23 139.999802 0.000000 -0.000060 3.908794 30.548384 64.790939 139.999802
[Rope2_Seg05]
22 139.999985 -0.000060 0.000119 -5.288807 5.088006 31.986042 139.999985
23 139.999985 -0.000060 0.000119 -2.892054 9.994802 31.138424 139.999985
[Rope2_Seg06]
22 139.999893 -0.000030 -0.000119 -0.939084 0.754766 14.546029 139.999893
23 139.999893 -0.000030 -0.000119 -0.982906 5.293549 22.298492 139.999893
[Rope2_Seg07]
22 139.999893 0.000060 -0.000060 -0.064877 0.237908 6.112371 139.999893
23 139.999893 0.000060 -0.000060 -0.169969 1.720901 8.702986 139.999893
[Rope2_Seg09]
22 121.338966 0.000089 -0.000060 33.793236 -1.359788 -0.847141 121.338966
23 121.338966 0.000089 -0.000060 33.793236 -1.359788 -0.847141 121.338966
[R_mid_hand01]
22 104.680779 11.144459 -10.335981 -40.747456 26.812803 30.364283 105.778534
23 104.680779 11.144459 -10.335981 -42.276798 23.959398 26.799994 105.778534
[R_mid_hand02]
22 104.070427 2.443552 8.231699 72.427025 -34.757431 10.772839 104.424065
23 104.070427 2.443552 8.231699 73.243484 -30.648268 9.258533 104.424065
[R_mid_hand03]
22 106.028137 -11.221827 -5.996406 -168.283356 10.692839 -39.109001 106.788818
23 106.028137 -11.221827 -5.996406 -167.519577 9.792204 -34.831245 106.788818
[spine02]
22 129.756927 0.001550 0.000119 0.364068 -4.044442 -12.988596 129.756927
23 129.756927 0.001550 0.000119 0.353004 -4.045546 -12.834482 129.756927
[spine03]
22 78.614502 0.080690 -4.899035 2.184291 3.673816 20.908377 78.767044
23 78.614471 0.080740 -4.899033 2.176115 3.682066 20.777466 78.767014
[pelvis]
22 169.435242 0.051022 0.000000 -0.061671 -0.179816 14.855682 169.435257
23 169.435242 0.051022 0.000000 -0.061574 -0.179850 14.793636 169.435257
[null_rope03_connect]
22 -1.257226 -2.466202 137.391083 -59.253326 -44.351170 132.481049 137.418976
23 -1.257226 -2.466202 137.391083 -58.947025 -40.042034 130.872910 137.418976
[null_rope04_connect]
22 -1.259640 -2.480268 -137.844437 -59.253326 -44.351170 132.481049 137.872513
23 -1.259640 -2.480268 -137.844437 -58.947025 -40.042034 130.872910 137.872513
[Rope3_Seg01]
22 0.000000 0.000000 0.000000 -123.127983 -40.654415 -95.384933 0.000000
23 0.000000 0.000000 0.000000 -112.352715 -37.199734 -111.694786 0.000000
[Rope3_Seg02]
22 139.999924 -0.000119 0.000060 2.817886 21.288496 0.818315 139.999924
23 139.999924 -0.000119 0.000060 6.900877 20.911146 0.354680 139.999924
[Rope3_Seg03]
22 139.999924 -0.000119 0.000119 3.100544 11.408271 2.946882 139.999924
23 139.999924 -0.000119 0.000119 6.178277 12.800321 0.864799 139.999924
[Rope3_Seg04]
22 139.999924 0.000119 0.000000 3.377953 8.372665 -0.559677 139.999924
23 139.999924 0.000119 0.000000 5.985824 9.256602 -1.759267 139.999924
[Rope3_Seg05]
22 139.999924 -0.000238 0.000060 7.778517 15.313160 -10.323075 139.999924
23 139.999924 -0.000238 0.000060 11.829422 15.520334 -12.010460 139.999924
[Rope3_Seg06]
22 139.999893 -0.000119 -0.000060 6.953522 15.099796 -15.676889 139.999893
23 139.999893 -0.000119 -0.000060 8.896504 12.403782 -16.718246 139.999893
[Rope3_Seg07]
22 139.999771 0.000060 -0.000119 3.344466 7.146062 -8.945616 139.999771
23 139.999771 0.000060 -0.000119 3.708374 5.038669 -9.097509 139.999771
[Rope3_Seg08]
22 139.999985 -0.000060 0.000000 1.913374 3.726134 -5.342399 139.999985
23 139.999985 -0.000060 0.000000 1.996983 2.471108 -5.300598 139.999985
[Rope3_Seg09]
22 90.185997 -0.000179 -0.000060 46.144253 -1.358309 -0.845608 90.185997
23 90.185997 -0.000179 -0.000060 43.690266 -1.358944 -0.846816 90.185997
[R_rear_hand01]
22 103.366196 -6.073594 -10.757982 -166.104523 20.584724 -44.265163 104.101845
23 103.366196 -6.073594 -10.757982 -163.529739 18.622267 -36.613609 104.101845
[R_rear_hand02]
22 100.509819 12.039542 -7.992327 -29.205854 26.684607 41.795719 101.543350
23 100.509819 12.039542 -7.992327 -32.177662 22.867016 34.718414 101.543350
[R_rear_hand03]
22 101.539970 5.215704 5.435467 81.972137 -44.810406 9.543637 101.819031
23 101.539970 5.215704 5.435467 82.839149 -37.406811 8.227582 101.819031
[Rope4_Seg01]
22 0.000000 0.000000 0.000000 -169.646179 -31.669374 155.885788 0.000000
23 0.000000 0.000000 0.000000 -95.261574 10.827179 102.761116 0.000000
[Rope4_Seg02]
22 139.999985 0.000060 0.000119 29.344061 -3.194191 13.115457 139.999985
23 139.999985 0.000060 0.000119 0.039896 0.936253 0.442166 139.999985
[Rope4_Seg03]
22 139.999924 0.000000 -0.000238 12.307852 1.533029 8.871245 139.999924
23 139.999924 0.000000 -0.000238 0.125296 -0.393992 0.001231 139.999924
[Rope4_Seg04]
22 139.999985 0.000000 0.000119 5.306782 1.556784 4.828543 139.999985
23 139.999985 0.000000 0.000119 0.592375 -5.660167 -1.731095 139.999985
[Rope4_Seg05]
22 139.999802 -0.000060 -0.000119 7.945665 14.381862 15.560272 139.999802
23 139.999802 -0.000060 -0.000119 -0.170352 11.571757 3.847610 139.999802
[Rope4_Seg06]
22 139.999924 0.000000 0.000060 12.280080 33.950565 32.759693 139.999924
23 139.999924 0.000000 0.000060 2.840642 28.334606 10.327559 139.999924
[Rope4_Seg07]
22 139.999802 0.000000 0.000000 0.422877 16.524868 13.200514 139.999802
23 139.999802 0.000000 0.000000 2.029039 15.445324 5.220177 139.999802
[Rope4_Seg08]
22 139.999924 0.000000 0.000119 -2.508233 6.555502 5.360115 139.999924
23 139.999924 0.000000 0.000119 -0.182130 7.926724 2.428333 139.999924
[Rope4_Seg09]
22 90.185791 0.000060 0.000060 -176.031860 2.230597 0.851084 90.185791
23 90.185791 0.000060 0.000060 -178.189407 2.230763 0.848268 90.185791
[L_rear_hand01]
22 101.696655 -8.392275 -7.654577 -27.785692 -28.167513 135.122620 102.329041
23 101.696655 -8.392275 -7.654577 -29.619171 -26.214312 139.132217 102.329041
[L_rear_hand02]
22 102.726799 -1.568258 5.773216 81.501305 47.889668 169.811890 102.900848
23 102.726799 -1.568258 5.773216 82.101921 43.864853 170.645187 102.900848
[L_rear_hand03]
22 104.552910 9.721220 -10.420293 -167.262024 -21.299606 -132.491074 105.519653
23 104.552910 9.721220 -10.420293 -165.757553 -20.349705 -136.721191 105.519653
